/* XPM */
static char * zdoom_xpm[] = {
/* columns rows colors chars-per-pixel */
"64 64 221 2 ",
"   c black",
".  c gray1",
"X  c gray2",
"o  c #060606",
"O  c gray3",
"+  c #090909",
"@  c #0B0B0B",
"#  c #0D0B0B",
"$  c #0B0B0D",
"%  c #0E0B0E",
"&  c gray5",
"*  c #0C0C0E",
"=  c #110B0B",
"-  c #140B0B",
";  c #160E0E",
":  c #180B0B",
">  c #1C0C0C",
",  c #1E0D0D",
"<  c #0D0D10",
"1  c #0E0E12",
"2  c #101010",
"3  c gray7",
"4  c #121214",
"5  c gray8",
"6  c #141415",
"7  c #151515",
"8  c #151516",
"9  c gray9",
"0  c #181212",
"q  c #1D1212",
"w  c #161618",
"e  c #161619",
"r  c #17171A",
"t  c #17171B",
"y  c #191919",
"u  c #18181D",
"i  c #1B1B1D",
"p  c #1D1D1D",
"a  c #1C1C1E",
"s  c #1E1E1E",
"d  c gray12",
"f  c #210D0D",
"g  c #240E0E",
"h  c #211010",
"j  c #261010",
"k  c #241414",
"l  c #281212",
"z  c #2C1313",
"x  c #291717",
"c  c #2F1515",
"v  c #271B1B",
"b  c #211C1C",
"n  c #211E1E",
"m  c #2D1B1B",
"M  c #2D1F1F",
"N  c #331612",
"B  c #331717",
"V  c #3B1817",
"C  c #321B1B",
"Z  c #341818",
"A  c #361818",
"S  c #361919",
"D  c #311D1D",
"F  c #341F1E",
"G  c #391818",
"H  c #3A1919",
"J  c #381B19",
"K  c #3B1C1B",
"L  c #3C1C19",
"P  c #3D1D1B",
"I  c #3D1E1C",
"U  c #37211E",
"Y  c #202020",
"T  c #222222",
"R  c #262121",
"E  c gray15",
"W  c #272727",
"Q  c #292222",
"!  c gray16",
"~  c #2C2C2C",
"^  c #2F2F2F",
"/  c #332422",
"(  c #3C2724",
")  c #332C2B",
"_  c #332D2D",
"`  c #382928",
"'  c #2F2F33",
"]  c gray19",
"[  c #313131",
"{  c #313133",
"}  c gray20",
"|  c gray21",
" . c #373737",
".. c #393231",
"X. c #393939",
"o. c gray23",
"O. c gray24",
"+. c #3E3E3E",
"@. c #431D17",
"#. c #4D1D14",
"$. c #431F19",
"%. c #401E1B",
"&. c #411F1C",
"*. c #4A1F18",
"=. c #42201C",
"-. c #43211D",
";. c #43221E",
":. c #45211D",
">. c #46221E",
",. c #4D2019",
"<. c #49211D",
"1. c #4D241F",
"2. c #5F2719",
"3. c #402420",
"4. c #412521",
"5. c #422926",
"6. c #472C28",
"7. c #4E2F2C",
"8. c #502621",
"9. c #532721",
"0. c #502722",
"q. c #552824",
"w. c #562925",
"e. c #552B26",
"r. c #572C27",
"t. c #5E2B22",
"y. c #592B26",
"u. c #5A2C27",
"i. c #5D2C25",
"p. c #5D2D27",
"a. c #5E2F28",
"s. c #52322F",
"d. c #5B312B",
"f. c #473331",
"g. c #403736",
"h. c #483432",
"j. c #523733",
"k. c #5D3C36",
"l. c #533E3B",
"z. c #683124",
"x. c #613129",
"c. c #62332C",
"v. c #65362D",
"b. c #66372E",
"n. c #65382F",
"m. c #69382E",
"M. c #69392F",
"N. c #73342B",
"B. c #74352C",
"V. c #79372D",
"C. c #663931",
"Z. c #663B32",
"A. c #6A3A30",
"S. c #6E3D31",
"D. c #614139",
"F. c #724232",
"G. c #784633",
"H. c #7B4934",
"J. c #7C4936",
"K. c gray25",
"L. c #434343",
"P. c #444444",
"I. c gray27",
"U. c #4A4140",
"Y. c #494949",
"T. c gray29",
"R. c #4E4E4E",
"E. c gray31",
"W. c #5A4641",
"Q. c #534B49",
"!. c #535353",
"~. c #565656",
"^. c gray34",
"/. c gray35",
"(. c #5A5A5A",
"). c #5B5B5B",
"_. c gray37",
"`. c #6B4D40",
"'. c #62534B",
"]. c #765E52",
"[. c gray38",
"{. c #646464",
"}. c gray40",
"|. c DimGray",
" X c #6C6C6C",
".X c #6F6F6F",
"XX c #766B68",
"oX c #727272",
"OX c gray46",
"+X c gray47",
"@X c #7B7B7B",
"#X c #7C7C7C",
"$X c #7E7E7E",
"%X c #863E33",
"&X c #854136",
"*X c #824D38",
"=X c #884D3B",
"-X c #924F3E",
";X c #8B533C",
":X c #90563E",
">X c #92593E",
",X c #8F5A42",
"<X c #995942",
"1X c #A25949",
"2X c #A75E50",
"3X c #AA6256",
"4X c #A8655B",
"5X c #AC6459",
"6X c #8B6B65",
"7X c #9A6B64",
"8X c #BA7564",
"9X c #BC8879",
"0X c #818181",
"qX c #848484",
"wX c #868686",
"eX c #8E8E8E",
"rX c #929292",
"tX c gray60",
"yX c #A0A0A0",
"uX c #B7B7B7",
"iX c None",
/* pixels */
"iXiXiXiXiXiXiXiXiXiXiXiXiXiXiXiXiXiXiXiXiXiXO. .{ {  .X.O.X.X.| X.O.K.X.} iXiXiXiXiXiXiXiXiXiXiXiXiXiXiXiXiXiXiXiXiXiXiXiXiXiXiX",
"iXiXiXiXiXiXiXiXiXiXiXiXiXiXiXiXiXiXiXiXiX .{ L.R./._._.).).).).R.Y.X.^ E T Y ^ iXiXiXiXiXiXiXiXiXiXiXiXiXiXiXiXiXiXiXiXiXiXiXiX",
"iXiXiXiXiXiXiXiXiXiXiXiXiXiXiXiXiXI.^ K._.{..XOX@X@X@X@XoXH.H.H.F.D.).@X@X@X@XE.T Y iXiXiXiXiXiXiXiXiXiXiXiXiXiXiXiXiXiXiXiXiXiX",
"iXiXiXiXiXiXiXiXiXiXiXiXiXiXiXiX^ ^ L.}..X@X@X@X@X@X X{.;X>X>X>XH.H.H..X.X@X@X@XOXL.T iXiXiXiXiXiXiXiXiXiXiXiXiXiXiXiXiXiXiXiXiX",
"iXiXiXiXiXiXiXiXiXiXiXiXiXi u ^ T.).{.{..X+X.XOX@X.X X{.*X>X2X2X*X*X*X{.}.{.{.@X@X@XR.! s iXiXiXiXiXiXiXiXiXiXiXiXiXiXiXiXiXiXiX",
"iXiXiXiXiXiXiXiXiXiXiXiXT R._.[././././.[.{.).{.{.}.{.}.|..X.X X.XoX}..X.X@X@X}.H.Q.@X@X@Xo.W iXiXiXiXiXiXiXiXiXiXiXiXiXiXiXiXiX",
"iXiXiXiXiXiXiXiXiXiXiXY /././././././.{.{._./.{.}.|.|.>X>XOX@X.XXX@X@X.X.X+X@X.X{.J.~..X@X.XR.W iXiXiXiXiXiXiXiXiXiXiXiXiXiXiXiX",
"iXiXiXiXiXiXiXiXiXiXY E /./.)././.{.{./././.[.{.{..X.X.X.XOX0X@X3X+X+XOXoXOX@X@X@X.XM.H.{..X}.!.i iXiXiXiXiXiXiXiXiXiXiXiXiXiXiX",
"iXiXiXiXiXiXiXiXiXp R._././.{.|.{.{.|. X.X.X.XOXOX@X@X@X@X$XwXwX0X8X6X5X7X@X0XwXqX$X@X X'.H.F.W.R.! E iXiXiXiXiXiXiXiXiXiXiXiXiX",
"iXiXiXiXiXiXiXiX8 ^ /.{.{.{.}.[.{.{.{..X.X.X.X.XOXOX@X@X@X$X$XwX@X6X@X5X5X@X@X@X0X@XoX.X{.].H.*X,XM.D b iXiXiXiXiXiXiXiXiXiXiXiX",
"iXiXiXiXiXiXiX5 5 {./._.}.{.{.{.}.}.}..X.X.X.X.X.X.X.XoXOX@X@X@X4XOXOX5X5X5XOXOX@X@X@X.X>X{.{.{.:X;XM.y.y.a.iXiXiXiXiXiXiXiXiXiX",
"iXiXiXiXiXiXiX8 w D.M.Q.{.}.{.{.}.|..X.X.X.X.X.X.X.X.X.X.X+X@X@X5X5XOX5X5X5X+X+X@X#X@X.X].:X`.H.).H.M.w.-.-.Z iXiXiXiXiXiXiXiXiX",
"iXiXiXiXiXiX6 b y.Z.W.M.W.~././.)././._._.)._.{.[././.[._..X.X.XoX@X@X5X1X>X>X.XoX.X.X.X X{._./.E.W.!.a.-.-.-.p 5 iXiXiXiXiXiXiX",
"iXiXiXiXiXiXy J y.Z./.~.M.T.R.^./.H.H././.(././././.E././.}. X.X.X+X+X5X5X<X>X.X{.I.{..X.X/././.!.R.E.U.L.r.e.X.e 5 iXiXiXiXiXiX",
"iXiXiXiXiXw n y.y.M.M./.C.k.R.R.!.!.~././././.!.E.{.R.E./.{.{.{. X.X.X2X5X1X>XXX X{.x.{.{.!.F.R.R.Y.I.R.X.R.L.K.X.6 iXiXiXiXiXiX",
"iXiXiXiX9 5 x.b.M.M.M.E.R.R.!.E.j.d.L.E.E.R.Y.I.L.L././.R.~./.~./._.{.}.1X1X1X-X{.).M.*X[.R.r.;.L.X.-.-.-.-.X.L.L.o.5 iXiXiXiXiX",
"iXiXiXiX8 i M.M.M.Z.Z.~.Q.R.R.R.I.v.k.R.R.R.R.Y.T.L.Y.R./.M.M.M.M.M.Z.H.H.&X%XN.N.v.M.*X=XM.F.y.M.M.a.-.y.y.;.I.Y.L.5 iXiXiXiXiX",
"iXiXiXiX6 p M.M.D.D.D.E.M.M.s.O.d.M.M.U.K.K.E.R.Y.Y.U.M.M.M.M.M.M.M.c.M.M.x.x.2.2.t.m.=X>XM.M.M.H.M.M.y.-.y.y.L.I.Y.w iXiXiXiXiX",
"iXiXiXiXi p M.M.Z.M.D.W.M.c.y.y.y.M.M.A.d.y.Y.R.T.T.T.M.C.M.m.m.c.M.y.M.M.M.p.t.2.t.t.G.H.M.M.M.M.M.M.M.0.y.0.0.7.f.i p iXiXiXiX",
"iXiXiXiXa p y.y.v.M.M.M.R.L.L.L.L.L.l.c.b.a.T.R.M.M.M.M.M.y.M.v.N.2.%.#.@.G H P ;.` :.<.y.a.M.M.-.G :.y.x.a.y.I -.<.y.f.iXiXiXiX",
"iXiXiXiXE W y.y.M.M.M.M.R.R.L.L.L.L.L.c.M.x.R.R.R.S.M.M.M.y.M.p.c.<.9.$.G G H G L I -.-.-.q.y.y.-.K J -.-.K.L.=.Z P -.0.iXiXiXiX",
"iXiXiXiXE X.y.y.y.M.v.!.T.R.L.L.L.L.L.L.k.M.M.R.!.M.y.y.<.-.y.y.y.%.8.A A Z Z j , j q x C Q M R E W ~ D j -.O.-.N Z V c iXiXiXiX",
"iXiXiXiXF S.y.y.y.M.M.Q.M.M.M.k.U.l.L.R.!.E.X.6.w.y.y.:.1.q.&.=.y.8.0.Z Z Z B j j l 9 8 w C M C M Z W E c Z 4.Z j z j z iXiXiXiX",
"iXiXiXiXU M.y.y.y.m.M.~.R././.R.L.L.L.R.R.E.L.R.M.0.w.y.y.1.-.I 1.1.-.K A Z I p b C i y 8 I -.-.I K E T -.K l j j j j 5 iXiXiXiX",
"iXiXiXiXU M.x.y.y.y.M.M./.R./.Q.L.L.L.U.D.Z.W.M.y.y.1.<.:.G A A -.=.S =.J C v p E L - 0 8 8 -.;.A U E T -.J j j j j q 5 iXiXiXiX",
"iXiXiXiX=.M.H.A.M.M.M.R.R.Y.!.L.M.L.K.g.y.a.M.M.M.i.,.*.=.G Z Z Z Z Z J Z t s p E | X.O.^ w 5 X.K.L.~ ~ Y y : Z G L 8 iXiXiXiXiX",
"iXiXiXiXM S.H.M.m.M.M.~.I.E.I.L.L.U.M.7.-.;.y.y.y.8.*.*.G Z Z Z j j J -.m w E t X.( y.| E p 5 u ~.Y.^ ~ p q : A G L 8 iXiXiXiXiX",
"iXiXiXiXD S.M.M.M.M.M.Z.T.R.L.L.L.K.K.y.-.-.-.-.-.%.$.@.Z Z B z j j I J v y T T O.y.z.y.S Y w 5 L.X.E E t 0 > z c Z 5 iXiXiXiXiX",
"iXiXiXiXE S.M.M.v.M.x.M.M.x.b.k.l.k.U.7.0.5.-.-.-.&.$.V Z Z j g ; j Z Z E a T ^ | c.N.N.y.w w w p 5 5 5 < 5 y : : j 5 iXiXiXiXiX",
"iXiXiXiXi M.y.M.H.F.G.{.F.M.u.y.y.p.r.7.r.7.-.| C j f , : : # @     # p p 8 Y W K m.N.V.&Xp 8 8 u 5 @ @ @ 5 i = - j 5 iXiXiXiXiX",
"iXiXiXiXi M.p.M.H.G.H.[.S.Q.y.y.y.y.y.y.7.e.-.[ ^ j g , : : % ;     # t T 5 p T -.N.%X%X&X[ u 5 u u < & o $ $ @ @ : 5 iXiXiXiXiX",
"iXiXiXiXi M.a.M.G.M.H./.H./.D.c.a.y.y.y.y.r.U M X.j : : # a s p E O X 4 u 5 p T y.B.-X-X&XW u 5 p W $ @ . O @ @ @ - 1 iXiXiXiXiX",
"iXiXiXiXi y.b.M.M.S.M.H.).F.{.).F.M.a.y.y.y.E b p 0 @ @ O @ 2 2 s     @ u 5 5 E y.y.1X-X-X~ s 5 ^ E 2 3 5 < $ . . @ iXiXiXiXiXiX",
"iXiXiXiXt 1.m.M.M.M.M.M.[.S./.[.~.M.y.y.y.1.p a E E @ @ E E E Y y E Y @ 5 5 5 0 x.p.5X3X<X~ E 5 X.X.[ ! p 5 4     . iXiXiXiXiXiX",
"iXiXiXiXe -.c.M.M.M.M.M././.W.{.Q.M.y.y.y.f.p ! E Y @ T o.T T ! ; 5 E . O 3 5 @ N.m.5X2X1XE a 5 O.L.^ s p 5 5     . iXiXiXiXiXiX",
"iXiXiXiXt E :.-.y.y.y.y.l.l.y.Z.c.a.p.M.c.q.p X.^ & o O @ w ~ K.E u @ | 5 e 8 . j Z 9XwX@X5 s ' I.^ ! X.X.W ^ : @   iXiXiXiXiXiX",
"iXiXiXiXp p y.-.y.y.y.y.1.>.-.:.9.y.y.M.c.K.E I.X.5 * 5 s ^ R./.L.| 1 L.o.W ~ . - Z yXwX.X1 1 Y T.E u o.X.^ ~ : X   iXiXiXiXiXiX",
"iXiXiXiXi E y.-.h.a.a.y.y.<.:.-.-.1.y.R.R.E.! X.P.p 5 r T E._./._.L.5 E } | T . . O tX@X& @ 5 @ E u w L.L.f.f.g X iXiXiXiXiXiXiX",
"iXiXiXiXt E 3.1.( s.s.c.M.c.y.y.0.w.8.L.T.] ^ ! L.E 8 6 a /.{.{.{.R.a 5 t @ X . @ o wX~   @ 5 O 5 5 -.M.M.m.y.j @ iXiXiXiXiXiXiX",
"iXiXiXiX5 5 7...E n.C.M.M.M.M.M.y. .O.Y.^ a Y K.i E ^ p d }.oX.X.X XX.@           . X.  @   o 1 5 f.M.M.y.p.y.: X iXiXiXiXiXiXiX",
"iXiXiXiX5 5 3.f.X.X.C.Z.G.S.M.M.f.| } L.E u w X.u T X.~ i /..XoX.X XL.4 O               @   o 5 p :X>Xy.M.M.J @ iXiXiXiXiXiXiXiX",
"iXiXiXiX5 5 F r.f.E g.M.H.F.F.R.f.^ } ^ E p 8 8 1 w u a $ p Y..X@X.XR.y @ @           @     < 5 H.>X1XM.M.y.c X iXiXiXiXiXiXiXiX",
"iXiXiXiX5 5 5 E } 8.=.J R.!.Q.R.y._ ^ Y a T w T E u @ 4 @ 2 5 5 2X=Xx.c.y.5 .             5 5 5 6XqX{.k.j g X   iXiXiXiXiXiXiXiX",
"iXiXiXiXiX5 5 p E y.0.v R.T.O.Y.| y.[ s 8 Y p E 5 E u u @ ^ $ O ^ Q.v.a.a.:.5             5 5 5XwXwX/.| .     iXiXiXiXiXiXiXiXiX",
"iXiXiXiXiX5 5 a E ;.K.-.L.R.L.L.X.y.y.i @ t T ^ ! E E [ Y E E @   o h y.y.q.E             1 R.5XqX@X!.^       iXiXiXiXiXiXiXiXiX",
"iXiXiXiXiX5 5 5 p i E X.^ R.I.L.o.X.r.w @ . L.o.T ~.| ! i ! E o       . @ 3 @             @ 5 p p E T ^ 5     iXiXiXiXiXiXiXiXiX",
"iXiXiXiXiX5 5 5 u s u ^ E L.L.O.X.X.7.k o   ^ L.Y R.~.| E L.t           X                   4 5 ^ | ^ Y.5     iXiXiXiXiXiXiXiXiX",
"iXiXiXiXiX5 5 5 5 E a a E E O.X.X.[ ^ Z 5 @ a E u p L./.X.E K.X         X                   1 5 a ^ ^ L.E b j iXiXiXiXiXiXiXiXiX",
"iXiXiXiXiX5 5 5 5 a i u E u ^ X.~ ^ ~ A l ; 5 p 5 w E a ^ T X.E a p 5 O                     . 4 X.[ i s E _ <.iXiXiXiXiXiXiXiXiX",
"iXiXiXiXiX5 5 5 5 8 u u u u t t [ T E C v Z Z j j u 8 5 i 5 5 5 5 Y R.5           @ 4 5       4 _..X@X@XI.w 8 iXiXiXiXiXiXiXiXiX",
"iXiXiXiXiXiX5 7 5 5 e u u u u 8 T E p p p v A Z Z l u ^ ^ O.I./.@X}.).5   @ X @ 5 5 ^ t @     w /..XyXwX@Xt 5 iXiXiXiXiXiXiXiXiX",
"iXiXiXiXiXiX4   . 4 5 5 6 w u t 5 p p s p Q Z Z B Z [ ^ R..X@X0XrX0X{.4   5 + @ 4 8 L.p 4   5 E L.R.uXwXqXp 5 iXiXiXiXiXiXiXiXiX",
"iXiXiXiXiXiXiX    @ 4 1 @ 5 5 2 $ 5 5 p E ` -.Z <.( E ^ _..X.X@XeXO.5   & ^ a     E !.~.u $  .L.u W ^ _.T.5 5 iXiXiXiXiXiXiXiXiX",
"iXiXiXiXiXiXiXiX  . @ @ o . 1 5 5 8 t w Y W -.-.:.^ Y ^ /..X.X X(.5 6 X @ [ T.  X X.{./.E 5 X.+.8 w p E 5 5 iXiXiXiXiXiXiXiXiXiX",
"iXiXiXiXiXiXiXiXiX8 5 @ & 3   @ 5 e T t 8 u ) =.-.~ E ^ Y.{.}.].w 7 T a ^ E | O 1 /._./.^ 5 W X.^ w 8 i 5 iXiXiXiXiXiXiXiXiXiXiX",
"iXiXiXiXiXiXiXiXiXiXiXE 5 u 2 5 @ @ 5 p u e ^ ^ ` -.r.X.O./.C.[ w Y i 5 L.E.L.u p oX-X-XM.5 8 X.^ T E p p iXiXiXiXiXiXiXiXiXiXiX",
"iXiXiXiXiXiXiXiXiXiXiXiXiXiX      ! a 2 5 6 t s s -.-./ %.-.C y ; 4 h p 5 5 W a }.+X-Xb.y.v 5 8 8 Y -.p 5 iXiXiXiXiXiXiXiXiXiXiX",
"iXiXiXiXiXiXiXiXiXiXiXiXiXiXiXiX    u . @ 5 & $ 5 p v R E -.-.-.&.A -.C p W p T H.-XN.y.y.M w ^ s S -.w 5 iXiXiXiXiXiXiXiXiXiXiX",
"iXiXiXiXiXiXiXiXiXiXiXiXiXiXiXiXiX    @ @ 2 O @ @ 4 5 5 y j K 1.I -.-.W ^ E 5 -.V.N.z.y.y.p u ^ E I E 5 5 iXiXiXiXiXiXiXiXiXiXiX",
"iXiXiXiXiXiXiXiXiXiXiXiXiXiXiXiXiXiXiX5 t i & @ 5 X @ @ @ ; j K -.( ~ E E 5 5 z *.2.,.q.=.Y E E p a u 5 iXiXiXiXiXiXiXiXiXiXiXiX",
"iXiXiXiXiXiXiXiXiXiXiXiXiXiXiXiXiXiXiXiXiXu ^ w 2 8 O @ @ @ @ q p s p Y a 6 i i j Z j k u 8 5 5 5 4 5 t iXiXiXiXiXiXiXiXiXiXiXiX",
"iXiXiXiXiXiXiXiXiXiXiXiXiXiXiXiXiXiXiXiXiXiX^ } E 2 5 8 5 @ O X @ @ @ 5 p E T p ; : g ; 5 5 8 5 5 5 5 iXiXiXiXiXiXiXiXiXiXiXiXiX",
"iXiXiXiXiXiXiXiXiXiXiXiXiXiXiXiXiXiXiXiXiXiXiXiXiX8 T a @ @ @ & 5 5 4 1 5 5 5 5 5 5 5 5 5 4 5 5 5 iXiXiXiXiXiXiXiXiXiXiXiXiXiXiX",
"iXiXiXiXiXiXiXiXiXiXiXiXiXiXiXiXiXiXiXiXiXiXiXiXiXiX5 a w 5 y p @ @ 4 5 5 5 5 5 4 4 5 4 4 5 5 5 iXiXiXiXiXiXiXiXiXiXiXiXiXiXiXiX"
};
